# xmcd
#
# Track frame offsets:
# 150
# 16993
# 29535
# 43818
# 63138
# 87470
# 99824
# 115555
# 133820
# 145467
# 160395
# 167925
# 175295
# 184613
#
# Disc length: 2688 seconds
#
#
# Revision: 0
# Processed by: cddbd v1.5.2PL0 Copyright (c) Steve Scherf et al.
# Submitted via: FreeRIP 2.951 
#
DISCID=bc0a7e0e
DTITLE=BÓBITA  - ÜNNEPELJ VELÜNK
DYEAR=2004
DGENRE=GYERMEK
TTITLE0=FARSANG
TTITLE1=SZÜLETÉSNAP
TTITLE2=LÓDÍTÁSOK
TTITLE3=IGAZI AJÁNDÉK
TTITLE4=ANYU
TTITLE5=NÉVNAP
TTITLE6=VAKÁCIÓ
TTITLE7=VALENTIN
TTITLE8=TIÉD EZ A NAP
TTITLE9=HÓBOLTOS
TTITLE10=PATTANJ PAJTÁS
TTITLE11=SIESS JOBBAN TÉLAPÓ
TTITLE12=BEKÖSZÖNT A TÉL
TTITLE13=EZÜST SZÁNKÓ
EXTD=
EXTT0=
EXTT1=
EXTT2=
EXTT3=
EXTT4=
EXTT5=
EXTT6=
EXTT7=
EXTT8=
EXTT9=
EXTT10=
EXTT11=
EXTT12=
EXTT13=
PLAYORDER=
